<svg xmlns="http://www.w3.org/2000/svg" width="1024" height="1024" viewBox="0 0 1024 1024">
  <defs>
    <linearGradient id="tile" x1="180" y1="124" x2="840" y2="914" gradientUnits="userSpaceOnUse">
      <stop stop-color="#242A47"/>
      <stop offset="0.48" stop-color="#15182A"/>
      <stop offset="1" stop-color="#0B0D17"/>
    </linearGradient>
    <radialGradient id="violet" cx="0" cy="0" r="1" gradientTransform="translate(350 817) rotate(-54) scale(496 522)" gradientUnits="userSpaceOnUse">
      <stop stop-color="#8D74FF" stop-opacity=".72"/>
      <stop offset=".56" stop-color="#5D45E8" stop-opacity=".18"/>
      <stop offset="1" stop-color="#3429A9" stop-opacity="0"/>
    </radialGradient>
    <radialGradient id="cyan" cx="0" cy="0" r="1" gradientTransform="translate(803 247) rotate(136) scale(432 386)" gradientUnits="userSpaceOnUse">
      <stop stop-color="#68D8FF" stop-opacity=".48"/>
      <stop offset=".45" stop-color="#4D91FF" stop-opacity=".13"/>
      <stop offset="1" stop-color="#2542D7" stop-opacity="0"/>
    </radialGradient>
    <linearGradient id="glass" x1="324" y1="310" x2="676" y2="724" gradientUnits="userSpaceOnUse">
      <stop stop-color="#FFFFFF"/>
      <stop offset=".38" stop-color="#E9E8FF"/>
      <stop offset=".72" stop-color="#C7C9EE"/>
      <stop offset="1" stop-color="#AEB1DB"/>
    </linearGradient>
    <linearGradient id="rim" x1="218" y1="105" x2="806" y2="945" gradientUnits="userSpaceOnUse">
      <stop stop-color="#FFFFFF" stop-opacity=".62"/>
      <stop offset=".28" stop-color="#FFFFFF" stop-opacity=".12"/>
      <stop offset=".69" stop-color="#9B91FF" stop-opacity=".2"/>
      <stop offset="1" stop-color="#FFFFFF" stop-opacity=".34"/>
    </linearGradient>
    <clipPath id="clip">
      <path d="M255 82C148 82 82 148 82 255V769C82 876 148 942 255 942H769C876 942 942 876 942 769V255C942 148 876 82 769 82H255Z"/>
    </clipPath>
    <filter id="tileShadow" x="45" y="48" width="934" height="942" filterUnits="userSpaceOnUse" color-interpolation-filters="sRGB">
      <feDropShadow dx="0" dy="18" stdDeviation="18" flood-color="#03040B" flood-opacity=".48"/>
    </filter>
    <filter id="glyphShadow" x="230" y="300" width="564" height="448" filterUnits="userSpaceOnUse" color-interpolation-filters="sRGB">
      <feDropShadow dx="0" dy="14" stdDeviation="15" flood-color="#080A1B" flood-opacity=".46"/>
      <feDropShadow dx="0" dy="0" stdDeviation="7" flood-color="#A79BFF" flood-opacity=".28"/>
    </filter>
  </defs>

  <path d="M255 82C148 82 82 148 82 255V769C82 876 148 942 255 942H769C876 942 942 876 942 769V255C942 148 876 82 769 82H255Z" fill="url(#tile)" filter="url(#tileShadow)"/>
  <g clip-path="url(#clip)">
    <path d="M82 82H942V942H82Z" fill="url(#violet)"/>
    <path d="M82 82H942V942H82Z" fill="url(#cyan)"/>
    <path d="M117 186C287 102 688 107 905 267V82H82V249C93 223 105 202 117 186Z" fill="#FFFFFF" fill-opacity=".07"/>
    <path d="M117 169C337 91 715 129 895 291" fill="none" stroke="#FFFFFF" stroke-opacity=".12" stroke-width="3"/>
    <path d="M135 785C321 889 675 904 892 752" fill="none" stroke="#A59CFF" stroke-opacity=".1" stroke-width="64"/>
  </g>
  <path d="M255 83.5C149 83.5 83.5 149 83.5 255V769C83.5 875 149 940.5 255 940.5H769C875 940.5 940.5 875 940.5 769V255C940.5 149 875 83.5 769 83.5H255Z" fill="none" stroke="url(#rim)" stroke-width="3"/>
  <path d="M257 95C158 95 95 158 95 257V767C95 866 158 929 257 929H767C866 929 929 866 929 767V257C929 158 866 95 767 95H257Z" fill="none" stroke="#FFFFFF" stroke-opacity=".055" stroke-width="2"/>

  <g filter="url(#glyphShadow)" fill="url(#glass)">
    <rect x="267" y="337" width="490" height="100" rx="50"/>
    <path d="M349 404H445V650C445 681 424 704 397 704C370 704 349 681 349 650V404Z"/>
    <path d="M579 404H675V650C675 681 654 704 627 704C600 704 579 681 579 650V404Z"/>
  </g>
  <path d="M310 354H714C727 354 738 361 745 372" fill="none" stroke="#FFFFFF" stroke-opacity=".72" stroke-width="5" stroke-linecap="round"/>
  <path d="M366 433V639C366 660 377 674 394 678" fill="none" stroke="#FFFFFF" stroke-opacity=".18" stroke-width="5" stroke-linecap="round"/>
  <path d="M596 433V639C596 660 607 674 624 678" fill="none" stroke="#FFFFFF" stroke-opacity=".18" stroke-width="5" stroke-linecap="round"/>
</svg>
