<svg xmlns="http://www.w3.org/2000/svg" width="1024" height="1024" viewBox="0 0 1024 1024">
  <defs>
    <clipPath id="tile">
      <path d="M255 82C148 82 82 148 82 255V769C82 876 148 942 255 942H769C876 942 942 876 942 769V255C942 148 876 82 769 82H255Z"/>
    </clipPath>
  </defs>
  <path fill="#171A24" d="M255 82C148 82 82 148 82 255V769C82 876 148 942 255 942H769C876 942 942 876 942 769V255C942 148 876 82 769 82H255Z"/>
  <g clip-path="url(#tile)">
    <path fill="#FFF" fill-opacity=".075" d="M82 82H942V310C758 184 521 131 279 153C196 161 131 183 82 211V82Z"/>
    <path fill="#000" fill-opacity=".12" d="M82 755C259 853 459 884 661 846C780 824 873 783 942 729V942H82V755Z"/>
  </g>
  <path fill="none" stroke="#FFF" stroke-opacity=".18" stroke-width="3" d="M255 83.5C149 83.5 83.5 149 83.5 255V769C83.5 875 149 940.5 255 940.5H769C875 940.5 940.5 875 940.5 769V255C940.5 149 875 83.5 769 83.5H255Z"/>
  <g fill="#FFF">
    <rect x="294" y="348" width="436" height="88" rx="44"/>
    <path d="M356 410H432V644C432 670 416 690 394 690C372 690 356 670 356 644V410Z"/>
    <path d="M592 410H668V644C668 670 652 690 630 690C608 690 592 670 592 644V410Z"/>
  </g>
</svg>
