<svg xmlns="http://www.w3.org/2000/svg" width="1024" height="1024" viewBox="0 0 1024 1024">
  <defs>
    <clipPath id="tile">
      <path d="M285 100C183 100 100 183 100 285V739C100 841 183 924 285 924H739C841 924 924 841 924 739V285C924 183 841 100 739 100H285Z"/>
    </clipPath>
  </defs>
  <path fill="#171A24" d="M285 100C183 100 100 183 100 285V739C100 841 183 924 285 924H739C841 924 924 841 924 739V285C924 183 841 100 739 100H285Z"/>
  <g clip-path="url(#tile)">
    <path fill="#FFF" fill-opacity=".075" d="M100 100H924V318C748 197 522 146 291 167C212 174 149 195 100 222V100Z"/>
    <path fill="#000" fill-opacity=".12" d="M100 745C270 839 460 869 653 833C767 812 856 773 924 721V924H100V745Z"/>
  </g>
  <path fill="none" stroke="#FFF" stroke-opacity=".18" stroke-width="3" d="M285 101.5C184 101.5 101.5 184 101.5 285V739C101.5 840 184 922.5 285 922.5H739C840 922.5 922.5 840 922.5 739V285C922.5 184 840 101.5 739 101.5H285Z"/>
  <g fill="#FFF">
    <rect x="294" y="348" width="436" height="88" rx="44"/>
    <path d="M356 410H432V644C432 670 416 690 394 690C372 690 356 670 356 644V410Z"/>
    <path d="M592 410H668V644C668 670 652 690 630 690C608 690 592 670 592 644V410Z"/>
  </g>
</svg>
